<svg xmlns="http://www.w3.org/2000/svg" xmlns:xlink="http://www.w3.org/1999/xlink" width="500" zoomAndPan="magnify" viewBox="0 0 375 374.999991" height="500" preserveAspectRatio="xMidYMid meet" version="1.0"><defs><g/></defs><path fill="#9b0eff" d="M 260.832031 67.253906 L 249.097656 71.414062 C 249.097656 78.984375 249.097656 79.007812 249.085938 86.589844 L 260.808594 90.773438 C 262.628906 95.183594 263.550781 97.414062 265.378906 101.824219 L 260.027344 113.058594 C 265.378906 118.421875 265.402344 118.433594 270.753906 123.796875 L 282 118.453125 C 286.410156 120.285156 288.628906 121.207031 293.039062 123.039062 L 297.199219 134.769531 C 304.773438 134.769531 304.796875 134.769531 312.378906 134.78125 L 316.5625 123.058594 C 320.96875 121.238281 323.203125 120.316406 327.613281 118.488281 L 338.847656 123.839844 C 344.210938 118.488281 344.21875 118.464844 349.582031 113.113281 L 344.242188 101.867188 C 346.074219 97.457031 346.992188 95.238281 348.824219 90.828125 L 360.558594 86.667969 C 360.558594 79.09375 360.558594 79.074219 360.570312 71.488281 L 348.847656 67.316406 C 347.027344 62.910156 346.105469 60.675781 344.273438 56.265625 L 349.625 45.03125 C 344.273438 39.667969 344.253906 39.660156 338.902344 34.296875 L 327.65625 39.636719 C 323.246094 37.804688 321.023438 36.886719 316.613281 35.054688 L 312.453125 23.320312 C 304.882812 23.320312 304.859375 23.320312 297.277344 23.308594 L 293.09375 35.03125 C 288.683594 36.851562 286.453125 37.773438 282.042969 39.605469 L 270.808594 34.253906 C 265.445312 39.605469 265.433594 39.625 260.070312 44.976562 L 265.414062 56.222656 C 263.582031 60.621094 262.652344 62.84375 260.832031 67.253906 Z M 304.839844 55.671875 C 317.742188 55.683594 328.195312 66.148438 328.1875 79.050781 C 328.175781 91.953125 317.710938 102.410156 304.804688 102.398438 C 291.902344 102.386719 281.449219 91.933594 281.457031 79.03125 C 281.46875 66.125 291.933594 55.660156 304.839844 55.671875 Z M 304.839844 55.671875 " fill-opacity="1" fill-rule="nonzero"/><path fill="#9b0eff" d="M 207.875 140.882812 C 207.875 145.160156 207.875 145.171875 207.863281 149.449219 L 214.480469 151.8125 C 215.511719 154.304688 216.03125 155.5625 217.0625 158.054688 L 214.039062 164.402344 C 217.0625 167.425781 217.070312 167.433594 220.09375 170.46875 L 226.441406 167.457031 C 228.933594 168.484375 230.191406 169.015625 232.683594 170.046875 L 235.035156 176.664062 C 239.3125 176.664062 239.324219 176.664062 243.605469 176.675781 L 245.964844 170.058594 C 248.457031 169.027344 249.714844 168.507812 252.207031 167.480469 L 258.554688 170.5 C 261.578125 167.480469 261.589844 167.46875 264.621094 164.445312 L 261.609375 158.097656 C 262.640625 155.605469 263.171875 154.347656 264.199219 151.855469 L 270.820312 149.503906 C 270.820312 145.226562 270.820312 145.214844 270.832031 140.933594 L 264.210938 138.574219 C 263.179688 136.082031 262.660156 134.824219 261.632812 132.332031 L 264.65625 125.984375 C 261.632812 122.960938 261.621094 122.949219 258.597656 119.917969 L 252.25 122.929688 C 249.757812 121.898438 248.5 121.367188 246.007812 120.339844 L 243.660156 113.71875 C 239.378906 113.71875 239.367188 113.71875 235.089844 113.710938 L 232.726562 120.328125 C 230.234375 121.359375 228.976562 121.878906 226.488281 122.90625 L 220.136719 119.882812 C 217.113281 122.90625 217.105469 122.917969 214.070312 125.941406 L 217.082031 132.289062 C 216.054688 134.78125 215.523438 136.039062 214.492188 138.53125 Z M 239.347656 131.984375 C 246.636719 131.984375 252.542969 137.902344 252.53125 145.191406 C 252.53125 152.484375 246.617188 158.390625 239.324219 158.378906 C 232.035156 158.378906 226.128906 152.460938 226.140625 145.171875 C 226.152344 137.878906 232.066406 131.984375 239.347656 131.984375 Z M 239.347656 131.984375 " fill-opacity="1" fill-rule="nonzero"/><path fill="#9b0eff" d="M 171.730469 173.730469 C 171.730469 176.601562 171.730469 176.613281 171.730469 179.492188 L 176.183594 181.074219 C 176.878906 182.753906 177.222656 183.601562 177.917969 185.269531 L 175.890625 189.535156 C 177.929688 191.574219 177.929688 191.574219 179.964844 193.609375 L 184.234375 191.585938 C 185.902344 192.277344 186.746094 192.625 188.425781 193.328125 L 190.007812 197.78125 C 192.878906 197.78125 192.890625 197.78125 195.773438 197.78125 L 197.355469 193.328125 C 199.03125 192.636719 199.878906 192.289062 201.546875 191.59375 L 205.816406 193.621094 C 207.851562 191.585938 207.851562 191.585938 209.886719 189.546875 L 207.863281 185.277344 C 208.554688 183.609375 208.902344 182.765625 209.605469 181.085938 L 214.058594 179.503906 C 214.058594 176.632812 214.058594 176.621094 214.058594 173.742188 L 209.605469 172.160156 C 208.914062 170.480469 208.566406 169.632812 207.875 167.964844 L 209.898438 163.699219 C 207.863281 161.660156 207.863281 161.660156 205.824219 159.625 L 201.558594 161.648438 C 199.890625 160.957031 199.042969 160.609375 197.363281 159.90625 L 195.78125 155.453125 C 192.910156 155.453125 192.902344 155.453125 190.019531 155.453125 L 188.4375 159.90625 C 186.757812 160.597656 185.914062 160.945312 184.246094 161.640625 L 179.976562 159.613281 C 177.9375 161.648438 177.9375 161.648438 175.902344 163.6875 L 177.929688 167.957031 C 177.234375 169.625 176.886719 170.46875 176.183594 172.148438 Z M 192.890625 167.761719 C 197.785156 167.761719 201.753906 171.738281 201.753906 176.632812 C 201.753906 181.53125 197.777344 185.496094 192.878906 185.496094 C 187.980469 185.496094 184.015625 181.519531 184.015625 176.621094 C 184.015625 171.714844 187.992188 167.75 192.890625 167.761719 Z M 192.890625 167.761719 " fill-opacity="1" fill-rule="nonzero"/><path fill="#9b0eff" d="M 314.132812 165.148438 C 314.132812 162.277344 314.132812 162.265625 314.132812 159.386719 L 309.679688 157.804688 C 308.988281 156.125 308.640625 155.28125 307.949219 153.609375 L 309.972656 149.34375 C 307.9375 147.304688 307.9375 147.304688 305.898438 145.269531 L 301.632812 147.292969 C 299.964844 146.601562 299.117188 146.253906 297.4375 145.550781 L 295.855469 141.097656 C 292.984375 141.097656 292.976562 141.097656 290.09375 141.097656 L 288.511719 145.550781 C 286.832031 146.242188 285.988281 146.589844 284.320312 147.285156 L 280.050781 145.257812 C 278.011719 147.292969 278.011719 147.292969 275.976562 149.332031 L 278.003906 153.601562 C 277.308594 155.269531 276.960938 156.113281 276.257812 157.792969 L 271.804688 159.375 C 271.804688 162.246094 271.804688 162.257812 271.804688 165.136719 L 276.257812 166.71875 C 276.953125 168.398438 277.296875 169.246094 277.992188 170.914062 L 275.964844 175.183594 C 278.003906 177.21875 278.003906 177.21875 280.039062 179.253906 L 284.308594 177.230469 C 285.976562 177.921875 286.820312 178.269531 288.5 178.972656 L 290.082031 183.425781 C 292.953125 183.425781 292.964844 183.425781 295.847656 183.425781 L 297.429688 178.972656 C 299.105469 178.28125 299.953125 177.933594 301.621094 177.238281 L 305.890625 179.265625 C 307.925781 177.230469 307.925781 177.230469 309.960938 175.191406 L 307.9375 170.925781 C 308.628906 169.253906 308.976562 168.410156 309.679688 166.730469 Z M 292.976562 171.117188 C 288.078125 171.117188 284.113281 167.144531 284.113281 162.246094 C 284.113281 157.347656 288.089844 153.382812 292.984375 153.382812 C 297.882812 153.382812 301.847656 157.359375 301.847656 162.257812 C 301.847656 167.152344 297.871094 171.117188 292.976562 171.117188 Z M 292.976562 171.117188 " fill-opacity="1" fill-rule="nonzero"/><path fill="#9b0eff" d="M 203.148438 103.601562 L 201.125 107.871094 C 203.160156 109.90625 203.160156 109.90625 205.199219 111.941406 L 209.464844 109.917969 C 211.132812 110.609375 211.980469 110.957031 213.660156 111.660156 L 215.242188 116.113281 C 218.113281 116.113281 218.121094 116.113281 221.003906 116.113281 L 222.585938 111.660156 C 224.265625 110.96875 225.109375 110.621094 226.777344 109.929688 L 231.046875 111.953125 C 233.085938 109.917969 233.085938 109.917969 235.121094 107.878906 L 233.09375 103.613281 C 233.789062 101.945312 234.136719 101.097656 234.839844 99.417969 L 239.292969 97.835938 C 239.292969 94.964844 239.292969 94.957031 239.292969 92.074219 L 234.839844 90.492188 C 234.144531 88.8125 233.800781 87.96875 233.105469 86.300781 L 235.132812 82.03125 C 233.09375 79.992188 233.09375 79.992188 231.058594 77.957031 L 226.789062 79.984375 C 225.121094 79.289062 224.277344 78.941406 222.597656 78.238281 L 221.015625 73.785156 C 218.144531 73.785156 218.132812 73.785156 215.25 73.785156 L 213.667969 78.238281 C 211.992188 78.933594 211.144531 79.277344 209.476562 79.972656 L 205.207031 77.945312 C 203.171875 79.984375 203.171875 79.984375 201.132812 82.019531 L 203.160156 86.289062 C 202.46875 87.957031 202.121094 88.800781 201.417969 90.480469 L 196.964844 92.0625 C 196.964844 94.933594 196.964844 94.945312 196.964844 97.828125 L 201.417969 99.410156 C 202.109375 101.085938 202.457031 101.933594 203.148438 103.601562 Z M 218.132812 86.09375 C 223.03125 86.09375 226.996094 90.070312 226.996094 94.964844 C 226.996094 99.863281 223.019531 103.828125 218.121094 103.828125 C 213.226562 103.828125 209.261719 99.851562 209.261719 94.957031 C 209.261719 90.058594 213.234375 86.082031 218.132812 86.09375 Z M 218.132812 86.09375 " fill-opacity="1" fill-rule="nonzero"/><path fill="#9b0eff" d="M 210.375 52.0625 L 207.851562 57.371094 C 210.375 59.90625 210.386719 59.90625 212.910156 62.441406 L 218.21875 59.929688 C 220.300781 60.796875 221.351562 61.230469 223.429688 62.09375 L 225.390625 67.632812 C 228.96875 67.632812 228.976562 67.632812 232.554688 67.632812 L 234.523438 62.09375 C 236.605469 61.238281 237.65625 60.796875 239.738281 59.941406 L 245.046875 62.464844 C 247.582031 59.941406 247.582031 59.929688 250.117188 57.40625 L 247.601562 52.097656 C 248.46875 50.015625 248.902344 48.964844 249.769531 46.882812 L 255.304688 44.921875 C 255.304688 41.347656 255.304688 41.335938 255.304688 37.761719 L 249.769531 35.789062 C 248.914062 33.710938 248.46875 32.660156 247.613281 30.578125 L 250.136719 25.269531 C 247.613281 22.734375 247.601562 22.734375 245.078125 20.199219 L 239.769531 22.714844 C 237.6875 21.847656 236.636719 21.414062 234.558594 20.546875 L 232.597656 15 C 229.023438 15 229.011719 15 225.433594 15 L 223.464844 20.535156 C 221.382812 21.390625 220.332031 21.835938 218.253906 22.691406 L 212.945312 20.167969 C 210.410156 22.691406 210.410156 22.703125 207.875 25.226562 L 210.386719 30.535156 C 209.519531 32.617188 209.085938 33.667969 208.21875 35.746094 L 202.683594 37.707031 C 202.683594 41.285156 202.683594 41.292969 202.683594 44.871094 L 208.21875 46.851562 C 209.085938 48.933594 209.519531 49.984375 210.375 52.0625 Z M 229.011719 30.285156 C 235.097656 30.285156 240.039062 35.238281 240.039062 41.328125 C 240.039062 47.414062 235.089844 52.355469 229 52.355469 C 222.910156 52.355469 217.972656 47.40625 217.972656 41.316406 C 217.972656 35.214844 222.910156 30.277344 229.011719 30.285156 Z M 229.011719 30.285156 " fill-opacity="1" fill-rule="nonzero"/><path fill="#9b0eff" d="M 374.914062 162.105469 C 374.914062 158.53125 374.914062 158.519531 374.914062 154.945312 L 369.375 152.972656 C 368.519531 150.890625 368.078125 149.839844 367.222656 147.761719 L 369.746094 142.453125 C 367.222656 139.917969 367.210938 139.917969 364.6875 137.382812 L 359.378906 139.894531 C 357.296875 139.027344 356.246094 138.59375 354.164062 137.726562 L 352.203125 132.191406 C 348.628906 132.191406 348.617188 132.191406 345.042969 132.191406 L 343.070312 137.726562 C 340.992188 138.585938 339.941406 139.027344 337.859375 139.882812 L 332.550781 137.359375 C 330.015625 139.882812 330.015625 139.894531 327.480469 142.417969 L 330.007812 147.726562 C 329.140625 149.808594 328.707031 150.859375 327.839844 152.9375 L 322.304688 154.898438 C 322.304688 158.476562 322.304688 158.488281 322.304688 162.0625 L 327.839844 164.035156 C 328.695312 166.113281 329.140625 167.164062 329.996094 169.246094 L 327.46875 174.554688 C 329.996094 177.089844 330.003906 177.089844 332.53125 179.625 L 337.839844 177.109375 C 339.917969 177.976562 340.96875 178.410156 343.050781 179.277344 L 345.011719 184.8125 C 348.585938 184.8125 348.597656 184.8125 352.171875 184.8125 L 354.144531 179.277344 C 356.222656 178.421875 357.273438 177.976562 359.355469 177.121094 L 364.664062 179.644531 C 367.199219 177.121094 367.199219 177.109375 369.734375 174.585938 L 367.210938 169.277344 C 368.078125 167.195312 368.511719 166.144531 369.375 164.066406 Z M 348.597656 169.539062 C 342.507812 169.539062 337.566406 164.585938 337.566406 158.496094 C 337.566406 152.410156 342.519531 147.46875 348.609375 147.46875 C 354.695312 147.46875 359.636719 152.417969 359.636719 158.507812 C 359.636719 164.597656 354.695312 169.546875 348.597656 169.539062 Z M 348.597656 169.539062 " fill-opacity="1" fill-rule="nonzero"/><path fill="#9b0eff" d="M 170.421875 188.898438 L 167.875 190.109375 C 166.878906 189.699219 166.367188 189.484375 165.371094 189.070312 L 164.429688 186.40625 C 162.707031 186.40625 162.707031 186.40625 160.984375 186.40625 L 160.042969 189.058594 C 159.042969 189.472656 158.535156 189.675781 157.539062 190.101562 L 154.992188 188.886719 C 153.777344 190.101562 153.769531 190.101562 152.554688 191.324219 L 153.769531 193.871094 C 153.355469 194.867188 153.140625 195.375 152.726562 196.375 L 150.0625 197.316406 C 150.0625 199.039062 150.0625 199.039062 150.0625 200.761719 L 152.71875 201.703125 C 153.128906 202.699219 153.335938 203.210938 153.757812 204.207031 L 152.53125 206.761719 C 153.746094 207.976562 153.746094 207.988281 154.972656 209.199219 L 157.515625 207.988281 C 158.511719 208.398438 159.023438 208.617188 160.019531 209.027344 L 160.960938 211.691406 C 162.683594 211.691406 162.683594 211.691406 164.40625 211.691406 L 165.351562 209.039062 C 166.347656 208.625 166.855469 208.421875 167.851562 208 L 170.398438 209.210938 C 171.613281 208 171.621094 208 172.835938 206.773438 L 171.621094 204.226562 C 172.035156 203.230469 172.25 202.722656 172.664062 201.726562 L 175.328125 200.78125 C 175.328125 199.058594 175.328125 199.058594 175.328125 197.335938 L 172.671875 196.394531 C 172.261719 195.398438 172.054688 194.890625 171.632812 193.890625 L 172.847656 191.347656 C 171.632812 190.109375 171.632812 190.109375 170.421875 188.898438 Z M 162.683594 204.347656 C 159.757812 204.347656 157.386719 201.972656 157.386719 199.039062 C 157.386719 196.101562 159.757812 193.742188 162.695312 193.742188 C 165.621094 193.742188 167.992188 196.113281 167.992188 199.050781 C 167.992188 201.972656 165.609375 204.347656 162.683594 204.347656 Z M 162.683594 204.347656 " fill-opacity="1" fill-rule="nonzero"/><path fill="#9b0eff" d="M 241.371094 196.699219 C 241.371094 194.976562 241.371094 194.976562 241.371094 193.253906 L 238.71875 192.308594 C 238.304688 191.3125 238.101562 190.804688 237.679688 189.808594 L 238.890625 187.261719 C 237.679688 186.046875 237.679688 186.039062 236.453125 184.824219 L 233.90625 186.039062 C 232.910156 185.625 232.402344 185.410156 231.40625 184.996094 L 230.460938 182.332031 C 228.738281 182.332031 228.738281 182.332031 227.015625 182.332031 L 226.074219 184.988281 C 225.078125 185.398438 224.570312 185.605469 223.570312 186.027344 L 221.027344 184.8125 C 219.8125 186.027344 219.800781 186.027344 218.589844 187.25 L 219.800781 189.796875 C 219.390625 190.792969 219.171875 191.304688 218.761719 192.300781 L 216.097656 193.242188 C 216.097656 194.964844 216.097656 194.964844 216.097656 196.6875 L 218.75 197.628906 C 219.164062 198.625 219.367188 199.136719 219.789062 200.132812 L 218.578125 202.679688 C 219.789062 203.890625 219.789062 203.902344 221.015625 205.117188 L 223.5625 203.902344 C 224.558594 204.316406 225.066406 204.53125 226.0625 204.941406 L 227.007812 207.609375 C 228.730469 207.609375 228.730469 207.609375 230.453125 207.609375 L 231.394531 204.953125 C 232.390625 204.542969 232.898438 204.335938 233.898438 203.914062 L 236.441406 205.128906 C 237.65625 203.914062 237.667969 203.914062 238.878906 202.6875 L 237.667969 200.144531 C 238.078125 199.148438 238.296875 198.636719 238.707031 197.640625 Z M 228.730469 200.261719 C 225.804688 200.261719 223.429688 197.890625 223.429688 194.953125 C 223.429688 192.019531 225.804688 189.65625 228.738281 189.65625 C 231.664062 189.65625 234.039062 192.027344 234.039062 194.964844 C 234.039062 197.902344 231.652344 200.261719 228.730469 200.261719 Z M 228.730469 200.261719 " fill-opacity="1" fill-rule="nonzero"/><path fill="#9b0eff" d="M 185.347656 128.714844 C 184.351562 129.125 183.84375 129.332031 182.847656 129.753906 L 180.300781 128.539062 C 179.085938 129.753906 179.078125 129.753906 177.863281 130.980469 L 179.078125 133.523438 C 178.664062 134.519531 178.449219 135.03125 178.035156 136.027344 L 175.371094 136.96875 C 175.371094 138.691406 175.371094 138.691406 175.371094 140.414062 L 178.027344 141.359375 C 178.4375 142.355469 178.644531 142.863281 179.066406 143.859375 L 177.851562 146.40625 C 179.066406 147.621094 179.066406 147.628906 180.289062 148.84375 L 182.835938 147.628906 C 183.832031 148.042969 184.34375 148.257812 185.339844 148.671875 L 186.28125 151.335938 C 188.003906 151.335938 188.003906 151.335938 189.726562 151.335938 L 190.667969 148.679688 C 191.664062 148.269531 192.175781 148.0625 193.171875 147.640625 L 195.71875 148.855469 C 196.929688 147.640625 196.941406 147.640625 198.15625 146.417969 L 196.941406 143.871094 C 197.355469 142.875 197.570312 142.367188 197.980469 141.367188 L 200.648438 140.425781 C 200.648438 138.703125 200.648438 138.703125 200.648438 136.980469 L 197.992188 136.039062 C 197.582031 135.042969 197.375 134.53125 196.953125 133.535156 L 198.167969 130.988281 C 196.953125 129.777344 196.953125 129.765625 195.726562 128.550781 L 193.183594 129.765625 C 192.1875 129.355469 191.675781 129.136719 190.679688 128.726562 L 189.738281 126.058594 C 188.015625 126.058594 188.015625 126.058594 186.292969 126.058594 Z M 193.3125 138.703125 C 193.3125 141.628906 190.941406 144 188.003906 144 C 185.078125 144 182.707031 141.628906 182.707031 138.691406 C 182.707031 135.757812 185.078125 133.394531 188.015625 133.394531 C 190.941406 133.40625 193.3125 135.777344 193.3125 138.703125 Z M 193.3125 138.703125 " fill-opacity="1" fill-rule="nonzero"/><path fill="#9b0eff" d="M 157.558594 119.332031 L 43.335938 119.257812 C 41.246094 119.257812 39.542969 120.945312 39.542969 123.046875 L 39.445312 254.085938 C 39.445312 256.175781 41.136719 257.878906 43.238281 257.878906 L 283.105469 258.050781 C 285.195312 258.050781 286.898438 256.359375 286.898438 254.257812 L 286.941406 190.566406 L 279.355469 190.566406 L 279.347656 192.167969 L 279.300781 250.46875 L 47.019531 250.304688 L 47.085938 153.96875 L 142.21875 154.035156 L 142.21875 154.054688 L 164.917969 154.066406 L 164.917969 146.480469 L 156.074219 146.472656 C 156.074219 146.460938 156.085938 146.449219 156.085938 146.449219 L 47.117188 146.382812 L 47.128906 126.851562 L 164.503906 126.9375 C 164.503906 126.925781 164.515625 126.914062 164.515625 126.914062 L 170.996094 126.914062 L 170.996094 119.332031 Z M 157.558594 119.332031 " fill-opacity="1" fill-rule="nonzero"/><path fill="#9b0eff" d="M 306.625 184.640625 L 306.5625 270.132812 L 10.941406 269.925781 L 11.0625 103.222656 C 11.0625 96.710938 16.359375 91.421875 22.871094 91.433594 L 181.320312 91.542969 L 181.320312 91.609375 L 189.066406 91.617188 L 189.078125 80.71875 L 22.882812 80.601562 C 10.402344 80.589844 0.238281 90.742188 0.226562 103.222656 L 0.0976562 298.355469 C 0.0859375 310.835938 10.238281 320.996094 22.71875 321.007812 L 116.757812 321.074219 L 106.988281 349.078125 L 80.648438 349.058594 C 77.660156 349.058594 75.230469 351.484375 75.230469 354.476562 C 75.230469 357.464844 77.660156 359.890625 80.648438 359.890625 L 229.488281 360 C 232.476562 360 234.90625 357.574219 234.90625 354.582031 C 234.90625 351.59375 232.476562 349.164062 229.488281 349.164062 L 200.34375 349.144531 L 190.605469 321.128906 L 294.730469 321.203125 C 307.210938 321.214844 317.375 311.0625 317.382812 298.582031 L 317.460938 183.632812 L 306.667969 183.621094 Z M 188.707031 348.699219 L 118.601562 348.644531 L 128.199219 321.136719 L 179.140625 321.171875 Z M 306.539062 298.570312 C 306.539062 305.082031 301.242188 310.367188 294.730469 310.359375 L 22.71875 310.164062 C 16.207031 310.164062 10.921875 304.867188 10.933594 298.355469 L 10.941406 280.75 L 306.5625 280.953125 Z M 306.539062 298.570312 " fill-opacity="1" fill-rule="nonzero"/><path fill="#9b0eff" d="M 64.191406 175.550781 L 140.238281 175.550781 L 140.238281 179.882812 L 64.191406 179.882812 Z M 64.191406 175.550781 " fill-opacity="1" fill-rule="nonzero"/><path fill="#9b0eff" d="M 64.179688 200.457031 L 140.226562 200.457031 L 140.226562 204.792969 L 64.179688 204.792969 Z M 64.179688 200.457031 " fill-opacity="1" fill-rule="nonzero"/><path fill="#9b0eff" d="M 64.160156 227.542969 L 140.203125 227.542969 L 140.203125 231.875 L 64.160156 231.875 Z M 64.160156 227.542969 " fill-opacity="1" fill-rule="nonzero"/><path fill="#9b0eff" d="M 160.203125 295.753906 C 160.203125 296.269531 160.152344 296.78125 160.050781 297.285156 C 159.953125 297.792969 159.804688 298.285156 159.605469 298.761719 C 159.410156 299.234375 159.167969 299.6875 158.878906 300.117188 C 158.59375 300.546875 158.269531 300.945312 157.902344 301.308594 C 157.539062 301.671875 157.140625 302 156.710938 302.285156 C 156.285156 302.570312 155.832031 302.8125 155.355469 303.011719 C 154.878906 303.207031 154.386719 303.355469 153.882812 303.457031 C 153.375 303.558594 152.863281 303.609375 152.347656 303.609375 C 151.832031 303.609375 151.324219 303.558594 150.816406 303.457031 C 150.3125 303.355469 149.820312 303.207031 149.34375 303.011719 C 148.867188 302.8125 148.414062 302.570312 147.984375 302.285156 C 147.554688 302 147.160156 301.671875 146.792969 301.308594 C 146.429688 300.945312 146.105469 300.546875 145.816406 300.117188 C 145.53125 299.6875 145.289062 299.234375 145.09375 298.761719 C 144.894531 298.285156 144.746094 297.792969 144.644531 297.285156 C 144.542969 296.78125 144.496094 296.269531 144.496094 295.753906 C 144.496094 295.238281 144.542969 294.726562 144.644531 294.222656 C 144.746094 293.714844 144.894531 293.222656 145.09375 292.75 C 145.289062 292.273438 145.53125 291.820312 145.816406 291.390625 C 146.105469 290.960938 146.429688 290.566406 146.792969 290.199219 C 147.160156 289.835938 147.554688 289.507812 147.984375 289.222656 C 148.414062 288.9375 148.867188 288.695312 149.34375 288.496094 C 149.820312 288.300781 150.3125 288.152344 150.816406 288.050781 C 151.324219 287.949219 151.832031 287.898438 152.347656 287.898438 C 152.863281 287.898438 153.375 287.949219 153.882812 288.050781 C 154.386719 288.152344 154.878906 288.300781 155.355469 288.496094 C 155.832031 288.695312 156.285156 288.9375 156.710938 289.222656 C 157.140625 289.507812 157.539062 289.835938 157.902344 290.199219 C 158.269531 290.566406 158.59375 290.960938 158.878906 291.390625 C 159.167969 291.820312 159.410156 292.273438 159.605469 292.75 C 159.804688 293.222656 159.953125 293.714844 160.050781 294.222656 C 160.152344 294.726562 160.203125 295.238281 160.203125 295.753906 Z M 160.203125 295.753906 " fill-opacity="1" fill-rule="nonzero"/><g fill="#cccccc" fill-opacity="1"><g transform="translate(0.0000045, 374.766632)"><g><path d="M 0.5625 -0.71875 L 0.5625 -0.640625 L 0.328125 -0.640625 L 0.328125 0 L 0.25 0 L 0.25 -0.640625 L 0.03125 -0.640625 L 0.03125 -0.71875 Z M 0.5625 -0.71875 "/></g></g><g transform="translate(0.583011, 374.766632)"><g><path d="M 0.515625 -0.25 L 0.140625 -0.25 C 0.140625 -0.1875 0.15625 -0.140625 0.1875 -0.109375 C 0.21875 -0.078125 0.257812 -0.0625 0.3125 -0.0625 C 0.351562 -0.0625 0.382812 -0.0664062 0.40625 -0.078125 C 0.425781 -0.0976562 0.441406 -0.117188 0.453125 -0.140625 L 0.46875 -0.140625 L 0.515625 -0.109375 C 0.503906 -0.078125 0.476562 -0.046875 0.4375 -0.015625 C 0.40625 0.00390625 0.363281 0.015625 0.3125 0.015625 C 0.257812 0.015625 0.210938 0.00390625 0.171875 -0.015625 C 0.140625 -0.0351562 0.113281 -0.0664062 0.09375 -0.109375 C 0.0703125 -0.148438 0.0625 -0.203125 0.0625 -0.265625 C 0.0625 -0.328125 0.0703125 -0.378906 0.09375 -0.421875 C 0.113281 -0.460938 0.140625 -0.492188 0.171875 -0.515625 C 0.210938 -0.535156 0.257812 -0.546875 0.3125 -0.546875 C 0.375 -0.546875 0.425781 -0.523438 0.46875 -0.484375 C 0.507812 -0.453125 0.53125 -0.394531 0.53125 -0.3125 C 0.53125 -0.28125 0.53125 -0.257812 0.53125 -0.25 Z M 0.453125 -0.3125 C 0.441406 -0.375 0.425781 -0.414062 0.40625 -0.4375 C 0.382812 -0.46875 0.351562 -0.484375 0.3125 -0.484375 C 0.257812 -0.484375 0.21875 -0.46875 0.1875 -0.4375 C 0.164062 -0.414062 0.148438 -0.375 0.140625 -0.3125 Z M 0.453125 -0.3125 "/></g></g><g transform="translate(1.157228, 374.766632)"><g><path d="M 0.3125 0.015625 C 0.257812 0.015625 0.210938 0.00390625 0.171875 -0.015625 C 0.140625 -0.046875 0.113281 -0.0820312 0.09375 -0.125 C 0.0703125 -0.164062 0.0625 -0.210938 0.0625 -0.265625 C 0.0625 -0.328125 0.0703125 -0.378906 0.09375 -0.421875 C 0.113281 -0.460938 0.140625 -0.492188 0.171875 -0.515625 C 0.210938 -0.535156 0.257812 -0.546875 0.3125 -0.546875 C 0.363281 -0.546875 0.40625 -0.535156 0.4375 -0.515625 C 0.476562 -0.492188 0.503906 -0.46875 0.515625 -0.4375 L 0.46875 -0.390625 L 0.453125 -0.390625 C 0.441406 -0.421875 0.421875 -0.441406 0.390625 -0.453125 C 0.367188 -0.472656 0.34375 -0.484375 0.3125 -0.484375 C 0.28125 -0.484375 0.25 -0.472656 0.21875 -0.453125 C 0.195312 -0.441406 0.175781 -0.421875 0.15625 -0.390625 C 0.144531 -0.359375 0.140625 -0.316406 0.140625 -0.265625 C 0.140625 -0.222656 0.144531 -0.1875 0.15625 -0.15625 C 0.175781 -0.125 0.195312 -0.0976562 0.21875 -0.078125 C 0.25 -0.0664062 0.28125 -0.0625 0.3125 -0.0625 C 0.34375 -0.0625 0.367188 -0.0664062 0.390625 -0.078125 C 0.421875 -0.0976562 0.441406 -0.128906 0.453125 -0.171875 L 0.46875 -0.171875 L 0.515625 -0.140625 C 0.503906 -0.0859375 0.476562 -0.046875 0.4375 -0.015625 C 0.40625 0.00390625 0.363281 0.015625 0.3125 0.015625 Z M 0.3125 0.015625 "/></g></g><g transform="translate(1.712403, 374.766632)"><g><path d="M 0.09375 0 L 0.09375 -0.75 L 0.171875 -0.75 L 0.171875 -0.46875 L 0.1875 -0.453125 C 0.21875 -0.515625 0.269531 -0.546875 0.34375 -0.546875 C 0.414062 -0.546875 0.460938 -0.53125 0.484375 -0.5 C 0.515625 -0.46875 0.53125 -0.414062 0.53125 -0.34375 L 0.53125 0 L 0.453125 0 L 0.453125 -0.34375 C 0.453125 -0.375 0.445312 -0.398438 0.4375 -0.421875 C 0.4375 -0.441406 0.425781 -0.457031 0.40625 -0.46875 C 0.382812 -0.476562 0.359375 -0.484375 0.328125 -0.484375 C 0.285156 -0.484375 0.25 -0.46875 0.21875 -0.4375 C 0.1875 -0.40625 0.171875 -0.351562 0.171875 -0.28125 L 0.171875 0 Z M 0.09375 0 "/></g></g><g transform="translate(2.332518, 374.766632)"><g><path d="M 0.3125 0 L 0.203125 0 L 0.03125 -0.71875 L 0.125 -0.71875 L 0.25 -0.125 L 0.265625 -0.125 L 0.421875 -0.71875 L 0.5 -0.71875 L 0.671875 -0.125 L 0.8125 -0.71875 L 0.890625 -0.71875 L 0.734375 0 L 0.625 0 L 0.46875 -0.546875 Z M 0.3125 0 "/></g></g><g transform="translate(3.264645, 374.766632)"><g><path d="M 0.453125 0 L 0.375 0 L 0.375 -0.171875 L 0.03125 -0.171875 L 0.03125 -0.234375 L 0.34375 -0.71875 L 0.453125 -0.71875 L 0.453125 -0.234375 L 0.578125 -0.234375 L 0.578125 -0.171875 L 0.453125 -0.171875 Z M 0.125 -0.25 L 0.140625 -0.234375 L 0.375 -0.234375 L 0.375 -0.59375 L 0.359375 -0.59375 Z M 0.125 -0.25 "/></g></g><g transform="translate(3.869624, 374.766632)"><g><path d="M 0.640625 0 L 0.546875 0 L 0.484375 -0.203125 L 0.1875 -0.203125 L 0.109375 0 L 0.03125 0 L 0.28125 -0.71875 L 0.390625 -0.71875 Z M 0.328125 -0.625 L 0.203125 -0.265625 L 0.46875 -0.265625 L 0.34375 -0.625 Z M 0.328125 -0.625 "/></g></g><g transform="translate(4.54052, 374.766632)"><g><path d="M 0.21875 0.015625 C 0.175781 0.015625 0.144531 0.00390625 0.125 -0.015625 C 0.101562 -0.046875 0.09375 -0.0820312 0.09375 -0.125 L 0.09375 -0.75 L 0.171875 -0.75 L 0.171875 -0.125 C 0.171875 -0.101562 0.175781 -0.0859375 0.1875 -0.078125 C 0.195312 -0.0664062 0.207031 -0.0625 0.21875 -0.0625 C 0.226562 -0.0625 0.242188 -0.0625 0.265625 -0.0625 L 0.28125 0 C 0.269531 0 0.257812 0 0.25 0 C 0.238281 0.0078125 0.226562 0.015625 0.21875 0.015625 Z M 0.21875 0.015625 "/></g></g><g transform="translate(4.833488, 374.766632)"><g><path d="M 0.21875 0.015625 C 0.175781 0.015625 0.144531 0.00390625 0.125 -0.015625 C 0.101562 -0.046875 0.09375 -0.0820312 0.09375 -0.125 L 0.09375 -0.75 L 0.171875 -0.75 L 0.171875 -0.125 C 0.171875 -0.101562 0.175781 -0.0859375 0.1875 -0.078125 C 0.195312 -0.0664062 0.207031 -0.0625 0.21875 -0.0625 C 0.226562 -0.0625 0.242188 -0.0625 0.265625 -0.0625 L 0.28125 0 C 0.269531 0 0.257812 0 0.25 0 C 0.238281 0.0078125 0.226562 0.015625 0.21875 0.015625 Z M 0.21875 0.015625 "/></g></g></g></svg>